<svg width="640" height="420" viewBox="0 0 640 420" fill="none" xmlns="http://www.w3.org/2000/svg">
  <defs>
    <linearGradient id="bg6" x1="0" y1="0" x2="1" y2="1">
      <stop offset="0%" stop-color="#4C1D95" />
      <stop offset="100%" stop-color="#7C3AED" />
    </linearGradient>
  </defs>
  <rect width="640" height="420" rx="36" fill="url(#bg6)" />
  <rect x="108" y="108" width="424" height="204" rx="32" fill="rgba(255,255,255,0.16)" />
  <path d="M188 308C212 276 244 244 272 244C300 244 324 276 348 244C372 212 396 196 428 228C452 252 472 268 504 244" stroke="#FDE68A" stroke-width="10" stroke-linecap="round" stroke-linejoin="round" />
  <circle cx="220" cy="208" r="16" fill="#34D399" />
  <circle cx="300" cy="188" r="16" fill="#F87171" />
  <circle cx="380" cy="204" r="16" fill="#38BDF8" />
  <circle cx="460" cy="188" r="16" fill="#F9A8D4" />
  <rect x="160" y="148" width="140" height="12" rx="6" fill="#FECACA" />
  <rect x="160" y="176" width="176" height="12" rx="6" fill="#DDD6FE" />
  <rect x="160" y="332" width="192" height="12" rx="6" fill="#EDE9FE" />
</svg>
