<svg width="560" height="420" viewBox="0 0 560 420" fill="none" xmlns="http://www.w3.org/2000/svg">
  <defs>
    <linearGradient id="gradient" x1="0" y1="0" x2="1" y2="1">
      <stop offset="0%" stop-color="#6366F1" />
      <stop offset="50%" stop-color="#8B5CF6" />
      <stop offset="100%" stop-color="#22D3EE" />
    </linearGradient>
    <linearGradient id="cardGradient" x1="0" y1="0" x2="1" y2="1">
      <stop offset="0%" stop-color="rgba(99,102,241,0.15)" />
      <stop offset="100%" stop-color="rgba(45,212,191,0.2)" />
    </linearGradient>
    <filter id="shadow" x="-20%" y="-20%" width="140%" height="140%" filterUnits="objectBoundingBox">
      <feDropShadow dx="0" dy="24" stdDeviation="24" flood-color="rgba(79,70,229,0.25)" />
    </filter>
  </defs>
  <rect x="40" y="40" width="480" height="320" rx="36" fill="url(#gradient)" opacity="0.12" />
  <g filter="url(#shadow)">
    <rect x="92" y="84" width="376" height="232" rx="28" fill="#ffffff" />
    <rect x="120" y="128" width="132" height="16" rx="8" fill="#6366F1" opacity="0.35" />
    <rect x="120" y="156" width="196" height="12" rx="6" fill="#6366F1" opacity="0.18" />
    <rect x="120" y="182" width="220" height="12" rx="6" fill="#6366F1" opacity="0.12" />
    <rect x="120" y="214" width="164" height="12" rx="6" fill="#22D3EE" opacity="0.3" />
    <rect x="120" y="246" width="108" height="12" rx="6" fill="#38BDF8" opacity="0.24" />
    <rect x="120" y="278" width="144" height="12" rx="6" fill="#14B8A6" opacity="0.32" />
    <rect x="324" y="128" width="116" height="92" rx="20" fill="url(#cardGradient)" />
    <circle cx="364" cy="174" r="18" fill="#6366F1" opacity="0.6" />
    <path d="M352 186L362 162L372 186H352Z" fill="#22D3EE" opacity="0.8" />
    <rect x="336" y="232" width="96" height="16" rx="8" fill="#38BDF8" opacity="0.6" />
  </g>
  <circle cx="120" cy="96" r="14" fill="#22D3EE" opacity="0.7" />
  <circle cx="448" cy="312" r="12" fill="#6366F1" opacity="0.4" />
  <circle cx="180" cy="320" r="10" fill="#8B5CF6" opacity="0.35" />
</svg>
